<svg width="425" height="213" viewBox="0 0 425 213" fill="none" xmlns="http://www.w3.org/2000/svg">
<g filter="url(#filter0_di_913_1162)">
<path d="M11.7778 99.9789C11.7778 73.8864 32.5008 52.5108 58.5807 51.702L352.036 42.6009C384.969 41.5796 412.222 67.9998 412.222 100.949V153.153C400.017 173.665 372.893 179.374 353.455 165.522L349.326 162.579C333.853 151.553 312.251 156.197 302.678 172.609L300.452 176.424C287.316 198.943 257.753 205.45 236.376 190.526L206.117 169.401C197.473 163.367 186.109 162.913 177.012 168.238L150.83 183.564C137.084 191.611 119.51 188.3 109.633 175.804L106.193 171.451C94.9614 157.24 76.8549 150.312 59.0057 153.397C39.349 156.794 20.5645 143.912 16.6523 124.351L11.7778 99.9789Z" fill="url(#paint0_linear_913_1162)" fill-opacity="0.5" shape-rendering="crispEdges"/>
</g>
<g filter="url(#filter1_di_913_1162)">
<path d="M12.6001 66.9056C12.6002 34.6653 38.7362 8.5293 70.9765 8.5293H353.846C386.086 8.5293 412.222 34.6653 412.222 66.9057V140.641L392.379 158.116C381.816 167.419 365.881 167.059 355.749 157.289C341.226 143.284 318.01 144.023 304.406 158.922L289.407 175.35C275.087 191.034 250.317 190.8 236.295 174.849L234.585 172.905C218.013 154.054 190.572 149.243 168.576 161.333L149.897 171.6C138.473 177.879 124.176 174.87 116.251 164.52L109.377 155.54C98.4395 141.255 79.7096 135.377 62.5715 140.852C49.4537 143.897 35.9216 137.779 29.5421 125.92L12.6001 94.4234L12.6001 66.9056Z" fill="url(#paint1_linear_913_1162)"/>
</g>
<path d="M97.3709 107.211C95.3309 107.211 93.4289 106.821 91.6649 106.041C89.9009 105.261 88.3589 104.175 87.0389 102.783C85.7189 101.379 84.6869 99.7408 83.9429 97.8688C83.1989 95.9968 82.8269 93.9688 82.8269 91.7848C82.8269 89.6968 83.1749 87.7288 83.8709 85.8808C84.5669 84.0208 85.5689 82.3828 86.8769 80.9668C88.1849 79.5388 89.7629 78.4228 91.6109 77.6188C93.4589 76.8028 95.5289 76.3948 97.8209 76.3948C99.1169 76.3948 100.419 76.5388 101.727 76.8268C103.047 77.1148 104.313 77.5408 105.525 78.1048C106.737 78.6568 107.829 79.3348 108.801 80.1388L106.065 84.6568C105.021 83.6848 103.755 82.9348 102.267 82.4068C100.791 81.8668 99.3329 81.5968 97.8929 81.5968C96.4769 81.5968 95.2229 81.8488 94.1309 82.3528C93.0509 82.8448 92.1389 83.5408 91.3949 84.4408C90.6509 85.3408 90.0869 86.3968 89.7029 87.6088C89.3189 88.8088 89.1269 90.1168 89.1269 91.5328C89.1269 93.0808 89.3429 94.4848 89.7749 95.7448C90.2069 97.0048 90.8069 98.0908 91.5749 99.0028C92.3549 99.9148 93.2609 100.617 94.2929 101.109C95.3369 101.601 96.4589 101.847 97.6589 101.847C98.6189 101.847 99.5429 101.691 100.431 101.379C101.331 101.055 102.129 100.605 102.825 100.029C103.521 99.4528 104.073 98.7748 104.481 97.9948C104.889 97.2148 105.093 96.3628 105.093 95.4388V94.9888H97.2989V90.4708H111.033V94.9708C111.033 96.7828 110.655 98.4388 109.899 99.9388C109.155 101.427 108.135 102.717 106.839 103.809C105.543 104.889 104.079 105.729 102.447 106.329C100.815 106.917 99.1229 107.211 97.3709 107.211ZM125.296 107.211C123.268 107.211 121.438 106.797 119.806 105.969C118.174 105.129 116.878 103.977 115.918 102.513C114.958 101.037 114.478 99.3388 114.478 97.4188C114.478 95.4988 114.952 93.8068 115.9 92.3428C116.86 90.8668 118.156 89.7148 119.788 88.8868C121.432 88.0468 123.268 87.6268 125.296 87.6268C127.336 87.6268 129.172 88.0468 130.804 88.8868C132.436 89.7148 133.726 90.8668 134.674 92.3428C135.634 93.8068 136.114 95.4988 136.114 97.4188C136.114 99.3388 135.634 101.037 134.674 102.513C133.726 103.977 132.436 105.129 130.804 105.969C129.172 106.797 127.336 107.211 125.296 107.211ZM125.314 102.495C126.25 102.495 127.102 102.279 127.87 101.847C128.638 101.415 129.244 100.821 129.688 100.065C130.132 99.2968 130.354 98.4148 130.354 97.4188C130.354 96.4228 130.132 95.5468 129.688 94.7908C129.244 94.0228 128.638 93.4228 127.87 92.9908C127.102 92.5588 126.25 92.3428 125.314 92.3428C124.366 92.3428 123.508 92.5588 122.74 92.9908C121.984 93.4228 121.384 94.0228 120.94 94.7908C120.496 95.5468 120.274 96.4228 120.274 97.4188C120.274 98.4148 120.496 99.2968 120.94 100.065C121.384 100.821 121.984 101.415 122.74 101.847C123.508 102.279 124.366 102.495 125.314 102.495ZM140.936 106.635V75.6748H146.462V106.635H140.936ZM160.592 107.211C158.924 107.211 157.4 106.797 156.02 105.969C154.652 105.129 153.56 103.971 152.744 102.495C151.928 101.019 151.52 99.3268 151.52 97.4188C151.52 95.5468 151.916 93.8788 152.708 92.4148C153.5 90.9388 154.586 89.7748 155.966 88.9228C157.358 88.0588 158.948 87.6268 160.736 87.6268C162.032 87.6268 163.232 87.8788 164.336 88.3828C165.44 88.8748 166.358 89.5648 167.09 90.4528V75.6748H172.616V106.635H167.09V104.205C166.274 105.153 165.308 105.891 164.192 106.419C163.076 106.947 161.876 107.211 160.592 107.211ZM162.248 102.513C163.22 102.513 164.078 102.297 164.822 101.865C165.566 101.421 166.148 100.815 166.568 100.047C167 99.2788 167.216 98.4088 167.216 97.4368C167.216 96.4528 167 95.5768 166.568 94.8088C166.148 94.0408 165.566 93.4348 164.822 92.9908C164.078 92.5468 163.226 92.3248 162.266 92.3248C161.318 92.3248 160.472 92.5468 159.728 92.9908C158.996 93.4348 158.414 94.0468 157.982 94.8268C157.55 95.5948 157.334 96.4708 157.334 97.4548C157.334 98.4268 157.544 99.2968 157.964 100.065C158.384 100.821 158.966 101.421 159.71 101.865C160.454 102.297 161.3 102.513 162.248 102.513ZM189.611 106.635V76.9348H199.727C201.659 76.9348 203.375 77.2708 204.875 77.9428C206.375 78.6148 207.557 79.6168 208.421 80.9488C209.285 82.2688 209.717 83.9188 209.717 85.8988C209.717 87.8668 209.285 89.5468 208.421 90.9388C207.557 92.3308 206.375 93.3988 204.875 94.1428C203.375 94.8748 201.659 95.2408 199.727 95.2408H195.443V106.635H189.611ZM195.443 90.5788H197.927C198.947 90.5788 199.883 90.4288 200.735 90.1288C201.599 89.8288 202.295 89.3488 202.823 88.6888C203.351 88.0288 203.615 87.1588 203.615 86.0788C203.615 84.9868 203.351 84.1168 202.823 83.4688C202.295 82.8088 201.599 82.3348 200.735 82.0468C199.883 81.7468 198.947 81.5968 197.927 81.5968H195.443V90.5788ZM220.552 107.211C218.86 107.211 217.318 106.791 215.926 105.951C214.546 105.099 213.448 103.935 212.632 102.459C211.828 100.971 211.426 99.2788 211.426 97.3828C211.426 95.5348 211.816 93.8788 212.596 92.4148C213.376 90.9388 214.45 89.7748 215.818 88.9228C217.198 88.0588 218.776 87.6268 220.552 87.6268C221.86 87.6268 223.078 87.8788 224.206 88.3828C225.346 88.8748 226.276 89.5648 226.996 90.4528V88.2028H232.522V106.635H226.996V104.205C226.156 105.177 225.19 105.921 224.098 106.437C223.006 106.953 221.824 107.211 220.552 107.211ZM222.19 102.513C223.15 102.513 224.002 102.297 224.746 101.865C225.49 101.421 226.072 100.815 226.492 100.047C226.912 99.2788 227.122 98.4028 227.122 97.4188C227.122 96.4228 226.906 95.5468 226.474 94.7908C226.054 94.0228 225.472 93.4228 224.728 92.9908C223.996 92.5468 223.15 92.3248 222.19 92.3248C221.242 92.3248 220.396 92.5468 219.652 92.9908C218.908 93.4228 218.32 94.0228 217.888 94.7908C217.456 95.5588 217.24 96.4348 217.24 97.4188C217.24 98.4028 217.45 99.2788 217.87 100.047C218.302 100.815 218.89 101.421 219.634 101.865C220.378 102.297 221.23 102.513 222.19 102.513ZM247.644 107.211C246.24 107.211 244.914 106.959 243.666 106.455C242.43 105.951 241.338 105.255 240.39 104.367C239.442 103.467 238.698 102.429 238.158 101.253C237.618 100.065 237.348 98.7928 237.348 97.4368C237.348 96.1288 237.6 94.8868 238.104 93.7108C238.62 92.5348 239.34 91.4908 240.264 90.5788C241.2 89.6668 242.292 88.9468 243.54 88.4188C244.8 87.8908 246.162 87.6268 247.626 87.6268C248.814 87.6268 249.954 87.7948 251.046 88.1308C252.15 88.4668 253.038 88.8988 253.71 89.4268L251.82 93.1528C250.92 92.4928 249.804 92.1628 248.472 92.1628C247.332 92.1628 246.366 92.4148 245.574 92.9188C244.782 93.4228 244.176 94.0768 243.756 94.8808C243.348 95.6848 243.144 96.5308 243.144 97.4188C243.144 98.3908 243.366 99.2788 243.81 100.083C244.254 100.875 244.878 101.505 245.682 101.973C246.498 102.441 247.44 102.675 248.508 102.675C249.168 102.675 249.786 102.585 250.362 102.405C250.938 102.225 251.424 101.985 251.82 101.685L253.71 105.411C253.026 105.927 252.144 106.353 251.064 106.689C249.984 107.037 248.844 107.211 247.644 107.211ZM258.182 106.635V75.6748H263.708V94.9348L270.512 88.2028H277.676L268.658 97.2388L278.09 106.635H270.998L263.708 99.3448V106.635H258.182ZM288.263 107.211C286.571 107.211 285.029 106.791 283.637 105.951C282.257 105.099 281.159 103.935 280.343 102.459C279.539 100.971 279.137 99.2788 279.137 97.3828C279.137 95.5348 279.527 93.8788 280.307 92.4148C281.087 90.9388 282.161 89.7748 283.529 88.9228C284.909 88.0588 286.487 87.6268 288.263 87.6268C289.571 87.6268 290.789 87.8788 291.917 88.3828C293.057 88.8748 293.987 89.5648 294.707 90.4528V88.2028H300.233V106.635H294.707V104.205C293.867 105.177 292.901 105.921 291.809 106.437C290.717 106.953 289.535 107.211 288.263 107.211ZM289.901 102.513C290.861 102.513 291.713 102.297 292.457 101.865C293.201 101.421 293.783 100.815 294.203 100.047C294.623 99.2788 294.833 98.4028 294.833 97.4188C294.833 96.4228 294.617 95.5468 294.185 94.7908C293.765 94.0228 293.183 93.4228 292.439 92.9908C291.707 92.5468 290.861 92.3248 289.901 92.3248C288.953 92.3248 288.107 92.5468 287.363 92.9908C286.619 93.4228 286.031 94.0228 285.599 94.7908C285.167 95.5588 284.951 96.4348 284.951 97.4188C284.951 98.4028 285.161 99.2788 285.581 100.047C286.013 100.815 286.601 101.421 287.345 101.865C288.089 102.297 288.941 102.513 289.901 102.513ZM315.607 116.535C313.123 116.535 311.035 116.079 309.343 115.167C307.651 114.267 306.421 112.935 305.653 111.171L310.153 108.975C310.657 109.827 311.401 110.505 312.385 111.009C313.369 111.513 314.437 111.765 315.589 111.765C316.633 111.765 317.551 111.555 318.343 111.135C319.135 110.727 319.753 110.145 320.197 109.389C320.641 108.645 320.863 107.781 320.863 106.797V104.205C320.047 105.153 319.081 105.891 317.965 106.419C316.849 106.947 315.649 107.211 314.365 107.211C312.697 107.211 311.173 106.797 309.793 105.969C308.425 105.129 307.333 103.971 306.517 102.495C305.701 101.019 305.293 99.3268 305.293 97.4188C305.293 95.5468 305.689 93.8788 306.481 92.4148C307.285 90.9388 308.377 89.7748 309.757 88.9228C311.149 88.0588 312.733 87.6268 314.509 87.6268C315.805 87.6268 317.005 87.8788 318.109 88.3828C319.213 88.8748 320.131 89.5648 320.863 90.4528V88.2028H326.389V107.139C326.389 108.951 325.993 110.565 325.201 111.981C324.421 113.397 323.233 114.507 321.637 115.311C320.041 116.127 318.031 116.535 315.607 116.535ZM316.021 102.513C316.993 102.513 317.851 102.297 318.595 101.865C319.351 101.421 319.939 100.821 320.359 100.065C320.779 99.2968 320.989 98.4268 320.989 97.4548C320.989 96.4588 320.773 95.5768 320.341 94.8088C319.921 94.0408 319.339 93.4348 318.595 92.9908C317.851 92.5468 317.005 92.3248 316.057 92.3248C315.109 92.3248 314.263 92.5468 313.519 92.9908C312.775 93.4348 312.187 94.0468 311.755 94.8268C311.323 95.5948 311.107 96.4708 311.107 97.4548C311.107 98.4268 311.317 99.2968 311.737 100.065C312.157 100.821 312.739 101.421 313.483 101.865C314.227 102.297 315.073 102.513 316.021 102.513ZM341.57 107.211C339.578 107.211 337.79 106.785 336.206 105.933C334.634 105.069 333.386 103.899 332.462 102.423C331.538 100.947 331.076 99.2788 331.076 97.4188C331.076 96.0508 331.334 94.7728 331.85 93.5848C332.378 92.3968 333.11 91.3588 334.046 90.4708C334.982 89.5708 336.068 88.8748 337.304 88.3828C338.54 87.8788 339.878 87.6268 341.318 87.6268C343.238 87.6268 344.918 88.0288 346.358 88.8328C347.81 89.6248 348.938 90.7288 349.742 92.1448C350.558 93.5608 350.966 95.2108 350.966 97.0948C350.966 97.2508 350.96 97.3888 350.948 97.5088C350.948 97.6168 350.93 97.8268 350.894 98.1388H336.764C336.764 99.0748 336.974 99.8908 337.394 100.587C337.826 101.283 338.426 101.829 339.194 102.225C339.962 102.609 340.856 102.801 341.876 102.801C342.836 102.801 343.682 102.615 344.414 102.243C345.158 101.871 345.872 101.277 346.556 100.461L350.534 102.459C349.67 103.947 348.446 105.111 346.862 105.951C345.278 106.791 343.514 107.211 341.57 107.211ZM336.962 95.0788H345.53C345.41 94.3708 345.152 93.7588 344.756 93.2428C344.372 92.7268 343.88 92.3308 343.28 92.0548C342.68 91.7788 342.002 91.6408 341.246 91.6408C340.442 91.6408 339.734 91.7788 339.122 92.0548C338.51 92.3308 338.018 92.7268 337.646 93.2428C337.274 93.7588 337.046 94.3708 336.962 95.0788Z" fill="white"/>
<path d="M119.367 66.0918V49.2356H124.618C125.748 49.2356 126.729 49.4331 127.56 49.8281C128.398 50.2231 129.041 50.7918 129.491 51.5342C129.947 52.2765 130.175 53.1687 130.175 54.2107C130.175 55.0757 130.012 55.8521 129.685 56.54C129.365 57.221 128.902 57.7863 128.295 58.2358C127.696 58.6853 126.974 58.9986 126.13 59.1757L131.677 66.0918H128.285L123.239 59.4719H122.043V66.0918H119.367ZM122.043 57.2244H123.831C124.573 57.2244 125.21 57.1086 125.742 56.8771C126.273 56.6387 126.678 56.3016 126.957 55.8657C127.243 55.423 127.386 54.8952 127.386 54.2823C127.386 53.3628 127.073 52.6511 126.446 52.1471C125.827 51.6363 124.955 51.3809 123.831 51.3809H122.043V57.2244ZM134.371 66.0918V49.2356H143.433V51.5853H137.048V56.4684H143.188V58.8181H137.048V63.7421H143.433V66.0918H134.371ZM155.169 66.4187C153.895 66.4187 152.707 66.1974 151.603 65.7547C150.5 65.3052 149.529 64.682 148.692 63.8852C147.861 63.0883 147.21 62.1621 146.741 61.1065C146.271 60.044 146.036 58.8998 146.036 57.6739C146.036 56.4548 146.271 55.3141 146.741 54.2516C147.217 53.1892 147.871 52.2595 148.702 51.4627C149.533 50.6658 150.497 50.0461 151.593 49.6034C152.696 49.1539 153.881 48.9291 155.148 48.9291C156.19 48.9291 157.178 49.079 158.111 49.3786C159.044 49.6783 159.851 50.0767 160.532 50.5739L159.357 52.8418C158.846 52.4332 158.24 52.1165 157.539 51.8917C156.837 51.667 156.098 51.5546 155.322 51.5546C154.402 51.5546 153.555 51.7113 152.778 52.0245C152.002 52.3378 151.324 52.7737 150.745 53.3322C150.173 53.8838 149.73 54.5308 149.417 55.2732C149.104 56.0155 148.947 56.8158 148.947 57.6739C148.947 58.5321 149.104 59.3323 149.417 60.0746C149.73 60.817 150.173 61.4674 150.745 62.0259C151.324 62.5775 152.002 63.01 152.778 63.3233C153.555 63.6366 154.402 63.7932 155.322 63.7932C156.098 63.7932 156.837 63.6809 157.539 63.4561C158.24 63.2314 158.846 62.9147 159.357 62.506L160.532 64.7739C159.871 65.2575 159.075 65.6525 158.141 65.959C157.215 66.2655 156.224 66.4187 155.169 66.4187ZM170.917 66.4187C169.739 66.4187 168.636 66.194 167.607 65.7445C166.579 65.295 165.677 64.6718 164.9 63.875C164.124 63.0713 163.514 62.1417 163.072 61.086C162.636 60.0236 162.418 58.8862 162.418 57.6739C162.418 56.4548 162.636 55.3175 163.072 54.2618C163.514 53.2062 164.124 52.2799 164.9 51.4831C165.677 50.6795 166.579 50.0529 167.607 49.6034C168.636 49.1539 169.739 48.9291 170.917 48.9291C172.096 48.9291 173.199 49.1539 174.227 49.6034C175.256 50.0529 176.158 50.6795 176.935 51.4831C177.711 52.2799 178.317 53.2062 178.753 54.2618C179.196 55.3175 179.417 56.4548 179.417 57.6739C179.417 58.8862 179.196 60.0236 178.753 61.086C178.317 62.1417 177.711 63.0713 176.935 63.875C176.158 64.6718 175.256 65.295 174.227 65.7445C173.199 66.194 172.096 66.4187 170.917 66.4187ZM170.917 63.8443C171.721 63.8443 172.463 63.6911 173.144 63.3846C173.832 63.0713 174.428 62.6388 174.932 62.0872C175.443 61.5287 175.838 60.8749 176.117 60.1257C176.396 59.3766 176.536 58.5593 176.536 57.6739C176.536 56.7885 176.396 55.9713 176.117 55.2221C175.838 54.4729 175.443 53.8225 174.932 53.2709C174.428 52.7124 173.832 52.2799 173.144 51.9735C172.463 51.6602 171.721 51.5035 170.917 51.5035C170.121 51.5035 169.378 51.6602 168.69 51.9735C168.009 52.2799 167.413 52.7124 166.903 53.2709C166.399 53.8225 166.007 54.4729 165.728 55.2221C165.448 55.9713 165.309 56.7885 165.309 57.6739C165.309 58.5593 165.448 59.3766 165.728 60.1257C166.007 60.8749 166.399 61.5287 166.903 62.0872C167.413 62.6388 168.009 63.0713 168.69 63.3846C169.378 63.6911 170.121 63.8443 170.917 63.8443ZM182.348 66.0918L184.207 49.2356H187.047L191.41 60.7285L195.772 49.2356H198.612L200.471 66.0918H197.805L196.456 54.0779L192.268 65.4584H190.562L186.363 54.0779L185.025 66.0918H182.348ZM203.698 66.0918L205.557 49.2356H208.397L212.759 60.7285L217.121 49.2356H219.961L221.821 66.0918H219.154L217.806 54.0779L213.617 65.4584H211.911L207.713 54.0779L206.374 66.0918H203.698ZM225.895 66.0918V49.2356H234.957V51.5853H228.572V56.4684H234.711V58.8181H228.572V63.7421H234.957V66.0918H225.895ZM239.184 66.0918V49.2356H241.86L249.767 61.607V49.2356H252.444V66.0918H249.767L241.86 53.7306V66.0918H239.184ZM257.361 66.0918V49.2356H261.692C262.891 49.2356 264.005 49.4501 265.033 49.8792C266.061 50.3083 266.96 50.9076 267.73 51.6772C268.506 52.44 269.109 53.3356 269.538 54.364C269.974 55.3856 270.192 56.4889 270.192 57.6739C270.192 58.859 269.977 59.9623 269.548 60.9839C269.119 62.0054 268.517 62.901 267.74 63.6706C266.971 64.4334 266.068 65.0293 265.033 65.4584C264.005 65.8807 262.891 66.0918 261.692 66.0918H257.361ZM260.037 63.6911H261.406C262.251 63.6911 263.031 63.5412 263.746 63.2416C264.468 62.9419 265.094 62.5196 265.625 61.9748C266.164 61.43 266.579 60.7932 266.872 60.0644C267.171 59.3289 267.321 58.5286 267.321 57.6637C267.321 56.8056 267.171 56.0087 266.872 55.2732C266.579 54.5376 266.164 53.9009 265.625 53.3628C265.094 52.818 264.468 52.3957 263.746 52.0961C263.031 51.7896 262.251 51.6363 261.406 51.6363H260.037V63.6911ZM273.922 66.0918V49.2356H282.983V51.5853H276.598V56.4684H282.738V58.8181H276.598V63.7421H282.983V66.0918H273.922ZM287.21 66.0918V49.2356H291.542C292.741 49.2356 293.854 49.4501 294.882 49.8792C295.911 50.3083 296.81 50.9076 297.579 51.6772C298.356 52.44 298.959 53.3356 299.388 54.364C299.824 55.3856 300.041 56.4889 300.041 57.6739C300.041 58.859 299.827 59.9623 299.398 60.9839C298.969 62.0054 298.366 62.901 297.59 63.6706C296.82 64.4334 295.918 65.0293 294.882 65.4584C293.854 65.8807 292.741 66.0918 291.542 66.0918H287.21ZM289.887 63.6911H291.256C292.1 63.6911 292.88 63.5412 293.595 63.2416C294.317 62.9419 294.944 62.5196 295.475 61.9748C296.013 61.43 296.428 60.7932 296.721 60.0644C297.021 59.3289 297.171 58.5286 297.171 57.6637C297.171 56.8056 297.021 56.0087 296.721 55.2732C296.428 54.5376 296.013 53.9009 295.475 53.3628C294.944 52.818 294.317 52.3957 293.595 52.0961C292.88 51.7896 292.1 51.6363 291.256 51.6363H289.887V63.6911Z" fill="#F1F1F1"/>
<defs>
<filter id="filter0_di_913_1162" x="1.77783" y="36.5723" width="420.444" height="175.994" filterUnits="userSpaceOnUse" color-interpolation-filters="sRGB">
<feFlood flood-opacity="0" result="BackgroundImageFix"/>
<feColorMatrix in="SourceAlpha" type="matrix" values="0 0 0 0 0 0 0 0 0 0 0 0 0 0 0 0 0 0 127 0" result="hardAlpha"/>
<feOffset dy="4"/>
<feGaussianBlur stdDeviation="5"/>
<feComposite in2="hardAlpha" operator="out"/>
<feColorMatrix type="matrix" values="0 0 0 0 0.14902 0 0 0 0 0.196078 0 0 0 0 0.219608 0 0 0 0.17 0"/>
<feBlend mode="normal" in2="BackgroundImageFix" result="effect1_dropShadow_913_1162"/>
<feBlend mode="normal" in="SourceGraphic" in2="effect1_dropShadow_913_1162" result="shape"/>
<feColorMatrix in="SourceAlpha" type="matrix" values="0 0 0 0 0 0 0 0 0 0 0 0 0 0 0 0 0 0 127 0" result="hardAlpha"/>
<feOffset dy="-4"/>
<feGaussianBlur stdDeviation="9.5"/>
<feComposite in2="hardAlpha" operator="arithmetic" k2="-1" k3="1"/>
<feColorMatrix type="matrix" values="0 0 0 0 0.14902 0 0 0 0 0.196078 0 0 0 0 0.219608 0 0 0 0.34 0"/>
<feBlend mode="normal" in2="shape" result="effect2_innerShadow_913_1162"/>
</filter>
<filter id="filter1_di_913_1162" x="0.600098" y="0.529297" width="423.622" height="202.436" filterUnits="userSpaceOnUse" color-interpolation-filters="sRGB">
<feFlood flood-opacity="0" result="BackgroundImageFix"/>
<feColorMatrix in="SourceAlpha" type="matrix" values="0 0 0 0 0 0 0 0 0 0 0 0 0 0 0 0 0 0 127 0" result="hardAlpha"/>
<feOffset dy="4"/>
<feGaussianBlur stdDeviation="6"/>
<feComposite in2="hardAlpha" operator="out"/>
<feColorMatrix type="matrix" values="0 0 0 0 1 0 0 0 0 1 0 0 0 0 1 0 0 0 1 0"/>
<feBlend mode="normal" in2="BackgroundImageFix" result="effect1_dropShadow_913_1162"/>
<feBlend mode="normal" in="SourceGraphic" in2="effect1_dropShadow_913_1162" result="shape"/>
<feColorMatrix in="SourceAlpha" type="matrix" values="0 0 0 0 0 0 0 0 0 0 0 0 0 0 0 0 0 0 127 0" result="hardAlpha"/>
<feOffset dy="-5"/>
<feGaussianBlur stdDeviation="9.5"/>
<feComposite in2="hardAlpha" operator="arithmetic" k2="-1" k3="1"/>
<feColorMatrix type="matrix" values="0 0 0 0 0.533333 0 0 0 0 0.748503 0 0 0 0 1 0 0 0 1 0"/>
<feBlend mode="normal" in2="shape" result="effect2_innerShadow_913_1162"/>
</filter>
<linearGradient id="paint0_linear_913_1162" x1="37.1535" y1="167.291" x2="435.572" y2="116.212" gradientUnits="userSpaceOnUse">
<stop stop-color="#88BFFF"/>
<stop offset="0.962669" stop-color="#2684FF"/>
</linearGradient>
<linearGradient id="paint1_linear_913_1162" x1="37.1535" y1="140.641" x2="435.572" y2="89.5615" gradientUnits="userSpaceOnUse">
<stop stop-color="#085ABB"/>
<stop offset="0.962669" stop-color="#88BFFF"/>
</linearGradient>
</defs>
</svg>
